<?xml version="1.0" standalone="no"?>
<!DOCTYPE svg PUBLIC "-//W3C//DTD SVG 20010904//EN"
 "http://www.w3.org/TR/2001/REC-SVG-20010904/DTD/svg10.dtd">
<svg version="1.0" xmlns="http://www.w3.org/2000/svg"
 width="455.000000pt" height="455.000000pt" viewBox="0 0 455.000000 455.000000"
 preserveAspectRatio="xMidYMid meet">
<metadata>
Created by potrace 1.11, written by Peter Selinger 2001-2013
</metadata>
<g transform="translate(0.000000,455.000000) scale(0.100000,-0.100000)"
fill="#000000" stroke="none">
<path d="M169 3808 c-118 -195 -115 -190 -97 -183 7 2 31 7 53 10 41 6 131 21
175 30 14 3 41 8 60 11 47 7 81 13 105 18 11 2 40 7 65 10 25 3 56 8 70 10 14
3 61 10 105 16 44 6 96 13 115 16 61 10 84 12 150 19 36 4 88 10 115 14 28 4
63 7 79 6 l30 0 0 -1532 0 -1533 1108 0 1108 0 0 1536 c0 844 3 1533 8 1531 4
-3 39 -8 77 -11 39 -4 81 -9 95 -11 14 -2 48 -7 75 -10 28 -4 66 -8 85 -11 19
-2 46 -6 60 -9 14 -3 45 -7 69 -10 23 -3 55 -7 70 -9 76 -13 385 -68 444 -80
37 -7 67 -11 67 -10 0 2 -39 83 -87 179 l-87 175 -2007 0 -2006 0 -104 -172z"/>
</g>
</svg>
